<?xml version="1.0" encoding="UTF-8"?>
<svg version="1.1" xmlns="http://www.w3.org/2000/svg" width="90" height="87">
<path d="M0 0 C5.57736798 1.394342 9.84090402 4.09846272 14 8 C15.5 10.875 15.5 10.875 16 13 C15.31164062 13.77923828 15.31164062 13.77923828 14.609375 14.57421875 C11.31617392 18.31712166 8.07047811 22.06978801 5 26 C5.59167969 26.3403125 6.18335937 26.680625 6.79296875 27.03125 C13.53283694 31.16532902 17.48495507 35.45486521 20 43 C20.81008133 53.95601797 20.15624124 63.12073117 13.0625 71.9375 C9.87933709 75.32860823 7.062344 77.76019256 2.3125 78.3125 C0 78 0 78 -2 76 C-1.85340788 72.91268105 -1.41640812 69.90888395 -0.99609375 66.84765625 C-0.72116845 64.00761272 -0.72116845 64.00761272 -2.328125 62.17578125 C-4.64382598 60.54721584 -6.15918743 60.13213082 -9 60 C-13.29799298 61.57957082 -13.29799298 61.57957082 -16 65 C-16.50007794 68.45786015 -16.50007794 68.45786015 -16 72 C-13.36293123 74.24926454 -11.07315463 74.9788977 -7.75 75.9375 C-5 77 -5 77 -3.875 78.875 C-4 81 -4 81 -5.66796875 83.0546875 C-12.34936732 88.62811545 -24.74467063 87.56146767 -33 87 C-45.2587657 85.75139666 -57.8765904 83.5617048 -69 78 C-69.96081373 75.14023107 -70.23531739 73.59203481 -69.109375 70.75927734 C-68.43648438 69.62159912 -68.43648438 69.62159912 -67.75 68.4609375 C-64.66429102 62.70506737 -63.34713642 56.97806063 -62 50.625 C-55.6986644 22.87846989 -55.6986644 22.87846989 -43.4375 14.625 C-35.37874974 10.18965775 -26.23860353 8.94348751 -17.30078125 11.15234375 C-13.50455219 12.55095446 -10.25301659 14.61930071 -7 17 C-5.4813346 13.06527601 -4.01113471 9.20481189 -2.9375 5.125 C-2 2 -2 2 0 0 Z " fill="#0C4220" transform="translate(70,0)"/>
<path d="M0 0 C4.25905172 2.80474138 4.25905172 2.80474138 5.5625 4.6875 C5.9375 7.25 5.9375 7.25 5.5625 9.6875 C2.21130481 11.92163013 1.1447245 11.92597762 -2.76171875 11.8828125 C-4.30375977 11.87314453 -4.30375977 11.87314453 -5.87695312 11.86328125 C-6.94880859 11.84652344 -8.02066406 11.82976563 -9.125 11.8125 C-10.20845703 11.80347656 -11.29191406 11.79445313 -12.40820312 11.78515625 C-15.0848571 11.7615734 -17.76106797 11.72866126 -20.4375 11.6875 C-20.4375 12.3475 -20.4375 13.0075 -20.4375 13.6875 C-19.52226562 13.74808594 -18.60703125 13.80867188 -17.6640625 13.87109375 C-16.47554687 13.95488281 -15.28703125 14.03867187 -14.0625 14.125 C-12.87914063 14.20621094 -11.69578125 14.28742187 -10.4765625 14.37109375 C-7.4375 14.6875 -7.4375 14.6875 -5.4375 15.6875 C-8.42786137 22.15195767 -12.45819114 27.34471291 -19.04296875 30.3125 C-21.53066424 31.21026951 -24.01843786 31.9633024 -26.55859375 32.71484375 C-29.56407439 33.35379333 -29.56407439 33.35379333 -30.4375 35.6875 C-28.82875 35.1925 -28.82875 35.1925 -27.1875 34.6875 C-23.4375 33.6875 -23.4375 33.6875 -19.4375 33.6875 C-21.01063172 38.41593614 -23.64391235 42.0308843 -26.5625 46 C-27.03042969 46.64517578 -27.49835937 47.29035156 -27.98046875 47.95507812 C-29.1280929 49.53598894 -30.28215477 51.11222301 -31.4375 52.6875 C-28.15003142 50.83230761 -25.48797949 48.97210624 -22.875 46.25 C-22.31683594 45.67378906 -21.75867188 45.09757812 -21.18359375 44.50390625 C-20.60738281 43.90449219 -20.03117187 43.30507813 -19.4375 42.6875 C-18.10651615 41.35182132 -16.7737541 40.01790616 -15.4375 38.6875 C-15.09976563 39.46996094 -14.76203125 40.25242188 -14.4140625 41.05859375 C-13.96804687 42.07050781 -13.52203125 43.08242188 -13.0625 44.125 C-12.40121094 45.63900391 -12.40121094 45.63900391 -11.7265625 47.18359375 C-10.68673714 49.80893547 -10.68673714 49.80893547 -8.4375 50.6875 C-8.6540625 50.0584375 -8.870625 49.429375 -9.09375 48.78125 C-10.90889594 43.20135693 -12.30126984 38.54194003 -11.4375 32.6875 C-9.76073461 29.99544547 -7.88248967 27.71443444 -5.4375 25.6875 C-4.7775 25.6875 -4.1175 25.6875 -3.4375 25.6875 C-3.4375 25.0275 -3.4375 24.3675 -3.4375 23.6875 C-2.7775 23.6875 -2.1175 23.6875 -1.4375 23.6875 C-1.24414062 24.32558594 -1.05078125 24.96367188 -0.8515625 25.62109375 C-0.46097656 26.86052734 -0.46097656 26.86052734 -0.0625 28.125 C0.19273438 28.94871094 0.44796875 29.77242187 0.7109375 30.62109375 C1.37132227 32.86548016 1.37132227 32.86548016 3.5625 33.6875 C3.2325 29.3975 2.9025 25.1075 2.5625 20.6875 C9.67878892 17.84098443 15.72080333 17.69240777 22.83984375 20.70703125 C26.28907535 22.67019935 27.89807801 25.52476152 29.8125 28.875 C31.81019899 36.36637119 30.65869001 42.72107248 27.5625 49.6875 C26.9025 49.6875 26.2425 49.6875 25.5625 49.6875 C24.9746875 48.07875 24.9746875 48.07875 24.375 46.4375 C22.71039639 42.69024165 21.3092787 40.63894724 17.5625 38.6875 C12.59161605 38.02870815 8.16938196 38.03162981 3.5 39.9375 C0.90340234 42.28281401 -0.25860425 44.38876331 -0.73828125 47.87109375 C-0.76275996 52.57916547 -0.75815691 56.0454892 2.5625 59.6875 C4.86224275 60.94980324 7.07662966 61.79633893 9.5625 62.6875 C9.5625 63.0175 9.5625 63.3475 9.5625 63.6875 C-8.11255346 67.59728033 -26.9338885 64.65352142 -43.4375 57.6875 C-42.865812 54.37286452 -42.03475111 51.60666376 -40.625 48.5625 C-38.54645607 43.55748628 -37.48111319 38.54231512 -36.4375 33.25 C-34.05065645 21.37107593 -31.54633512 9.50678168 -21.11328125 2.01953125 C-14.13060047 -1.8938393 -7.54124075 -2.87938283 0 0 Z " fill="#2CBA2C" transform="translate(49.4375,17.3125)"/>
<path d="M0 0 C3.40219909 1.62840299 6.16821057 3.48285384 9 6 C9 6.66 9 7.32 9 8 C6.525 7.505 6.525 7.505 4 7 C2.41906815 10.92277949 0.89057144 14.86403758 -0.625 18.8125 C-1.29402344 20.55466797 -1.29402344 20.55466797 -1.9765625 22.33203125 C-2.31429687 23.21246094 -2.65203125 24.09289062 -3 25 C-1.61167969 25.19335938 -1.61167969 25.19335938 -0.1953125 25.390625 C4.74897995 26.3335463 7.8300342 28.7650361 11.25 32.375 C15.15774396 38.23661594 15.8100242 44.11479433 15 51 C13.23017092 57.837976 10.43597908 62.50940859 5 67 C4.34 67 3.68 67 3 67 C3.375 64.5625 3.375 64.5625 4 62 C4.66 61.67 5.32 61.34 6 61 C8.35761368 54.84400873 9.40965407 47.9962363 7.171875 41.65234375 C5.09510218 37.38256083 3.58289279 34.58147082 -1.0625 32.875 C-7.15892728 31.25861949 -12.87606747 31.77521349 -19 33 C-18.505 39.435 -18.505 39.435 -18 46 C-18.99 45.67 -19.98 45.34 -21 45 C-21.73046875 42.93359375 -21.73046875 42.93359375 -22.1875 40.4375 C-22.42533203 39.19806641 -22.42533203 39.19806641 -22.66796875 37.93359375 C-22.77753906 37.29550781 -22.88710938 36.65742187 -23 36 C-23.66 36 -24.32 36 -25 36 C-25 36.66 -25 37.32 -25 38 C-26.98260426 39.68732277 -28.9832342 41.35366057 -31 43 C-32.58642201 46.17284401 -32.28745373 49.53718535 -32 53 C-31.37400383 54.68236471 -30.71247732 56.3523962 -30 58 C-29.875 60.8125 -29.875 60.8125 -30 63 C-33 62 -33 62 -34.16796875 59.71484375 C-34.50441406 58.79832031 -34.84085938 57.88179687 -35.1875 56.9375 C-35.53167969 56.01839844 -35.87585938 55.09929688 -36.23046875 54.15234375 C-36.48441406 53.44207031 -36.73835938 52.73179688 -37 52 C-37.66 52.66 -38.32 53.32 -39 54 C-39.45117188 54.44730469 -39.90234375 54.89460938 -40.3671875 55.35546875 C-41.5959976 56.59309806 -42.80653952 57.84890638 -44.0078125 59.11328125 C-44.70648438 59.83902344 -45.40515625 60.56476563 -46.125 61.3125 C-46.78757812 62.00988281 -47.45015625 62.70726562 -48.1328125 63.42578125 C-50 65 -50 65 -53 65 C-51.68081702 61.27215954 -50.06253191 58.55380242 -47.5625 55.5 C-45.11249935 52.44260336 -42.88989665 49.44628213 -41 46 C-42.3303125 46.495 -42.3303125 46.495 -43.6875 47 C-46.70923347 47.91222143 -48.88373706 48.18330958 -52 48 C-51.67 47.01 -51.34 46.02 -51 45 C-48.15625 43.96484375 -48.15625 43.96484375 -44.5 42.9375 C-36.93922867 40.57566457 -32.6179296 36.47426854 -28 30 C-27.67 29.34 -27.34 28.68 -27 28 C-34.425 27.01 -34.425 27.01 -42 26 C-42 25.34 -42 24.68 -42 24 C-37.01379942 22.98370434 -32.30605441 22.91327522 -27.25 23 C-21.96919114 23.33384805 -21.96919114 23.33384805 -17 22 C-16.58129447 19.66928121 -16.58129447 19.66928121 -17 17 C-21.09847357 12.05356638 -26.98311746 11.80084601 -33 11 C-33 10.67 -33 10.34 -33 10 C-25.54098266 9.55245896 -19.14479714 9.29516692 -13 14 C-11.17686544 15.91172677 -9.61903726 17.90477531 -8 20 C-7.34 20 -6.68 20 -6 20 C-3.11450374 13.41658619 -1.14789743 7.09883934 0 0 Z " fill="#187830" transform="translate(71,5)"/>
<path d="M0 0 C3.4492316 1.9631681 5.05823426 4.81773027 6.97265625 8.16796875 C8.97035524 15.65933994 7.81884626 22.01404123 4.72265625 28.98046875 C4.06265625 28.98046875 3.40265625 28.98046875 2.72265625 28.98046875 C2.33078125 27.90796875 1.93890625 26.83546875 1.53515625 25.73046875 C-0.08192082 22.03215361 -1.70606502 20.04387424 -5.27734375 17.98046875 C-7.9799056 17.38771355 -10.50136925 17.16867041 -13.27734375 16.98046875 C-13.27734375 16.65046875 -13.27734375 16.32046875 -13.27734375 15.98046875 C-11.29734375 15.65046875 -9.31734375 15.32046875 -7.27734375 14.98046875 C-8.12039062 15.00367187 -8.9634375 15.026875 -9.83203125 15.05078125 C-11.47558594 15.07785156 -11.47558594 15.07785156 -13.15234375 15.10546875 C-14.78816406 15.14027344 -14.78816406 15.14027344 -16.45703125 15.17578125 C-19.27734375 14.98046875 -19.27734375 14.98046875 -21.27734375 12.98046875 C-20.61734375 12.98046875 -19.95734375 12.98046875 -19.27734375 12.98046875 C-19.60734375 8.69046875 -19.93734375 4.40046875 -20.27734375 -0.01953125 C-13.16105483 -2.86604682 -7.11904042 -3.01462348 0 0 Z " fill="#23A235" transform="translate(72.27734375,38.01953125)"/>
<path d="M0 0 C0 0.99 0 1.98 0 3 C-1.39412109 3.58394531 -1.39412109 3.58394531 -2.81640625 4.1796875 C-11.17101444 7.87102229 -17.07323705 11.3500602 -21 20 C-23.98032885 27.88898562 -25.85437419 36.05694385 -27.5 44.3125 C-28.82952553 50.94475743 -31.1627544 56.87693242 -34 63 C-32.91332031 63.29003906 -32.91332031 63.29003906 -31.8046875 63.5859375 C-26.81954385 64.92860286 -21.87405309 66.28749486 -17 68 C-17.66 69.32 -18.32 70.64 -19 72 C-33.54429843 69.648156 -33.54429843 69.648156 -39 66 C-39.94993686 63.13435208 -40.23640049 61.59475978 -39.109375 58.75927734 C-38.43648437 57.62159912 -38.43648437 57.62159912 -37.75 56.4609375 C-34.66429102 50.70506737 -33.34713642 44.97806063 -32 38.625 C-25.86641218 11.61710995 -25.86641218 11.61710995 -15.5 4.21484375 C-6.19408678 -1.50666976 -6.19408678 -1.50666976 0 0 Z " fill="#0D5218" transform="translate(40,12)"/>
<path d="M0 0 C6.01134125 1.30245727 11.96392191 2.74216314 17.91015625 4.31640625 C25.71005366 6.04204727 33.54249653 6.27218438 41.5 6.5625 C43.16289063 6.62727539 43.16289063 6.62727539 44.859375 6.69335938 C47.57281506 6.79862214 50.28633417 6.90075846 53 7 C53 7.33 53 7.66 53 8 C35.32494654 11.90978033 16.5036115 8.96602142 0 2 C0 1.34 0 0.68 0 0 Z " fill="#8BDC6C" transform="translate(6,73)"/>
<path d="M0 0 C3.40219909 1.62840299 6.16821057 3.48285384 9 6 C9 6.66 9 7.32 9 8 C7.35 7.67 5.7 7.34 4 7 C3.7525 7.680625 3.505 8.36125 3.25 9.0625 C1.75802092 12.56865083 -0.06835511 15.71620368 -2 19 C-2.66 19 -3.32 19 -4 19 C-3.566875 17.081875 -3.566875 17.081875 -3.125 15.125 C-2.00617536 10.09828073 -0.9916404 5.05314632 0 0 Z " fill="#19813E" transform="translate(71,5)"/>
<path d="M0 0 C0.66 0.66 1.32 1.32 2 2 C1.26394531 2.10957031 0.52789062 2.21914063 -0.23046875 2.33203125 C-7.62207137 3.38387173 -7.62207137 3.38387173 -14 7 C-16.10254924 10.29030512 -16.21685966 12.89189432 -16.125 16.75 C-16.10695312 17.73484375 -16.08890625 18.7196875 -16.0703125 19.734375 C-16.04710937 20.48203125 -16.02390625 21.2296875 -16 22 C-18 21 -18 21 -19 18 C-19.53462577 11.58449072 -18.87599437 8.20199245 -15 3 C-10.42130128 -0.30092233 -5.50673278 -0.84803685 0 0 Z " fill="#4FB93E" transform="translate(65,52)"/>
<path d="M0 0 C-1 3 -1 3 -3.8125 4.625 C-6.25800018 5.67992164 -8.40235776 6.50045341 -11 7 C-10.8125 5.1875 -10.8125 5.1875 -10 3 C-6.62712264 0.37665094 -4.24348127 -0.36372697 0 0 Z " fill="#135C1E" transform="translate(62,31)"/>
<path d="M0 0 C3.05875192 0.44930819 5.44721548 1.72848554 8.07421875 3.3046875 C4.32421875 4.4296875 4.32421875 4.4296875 2.07421875 3.3046875 C0.2004227 3.23434981 -1.67579227 3.2203853 -3.55078125 3.2421875 C-5.05511719 3.25572266 -5.05511719 3.25572266 -6.58984375 3.26953125 C-7.74613281 3.28693359 -7.74613281 3.28693359 -8.92578125 3.3046875 C-6.19864907 0.11318297 -4.22063228 -0.14042769 0 0 Z " fill="#1C8C38" transform="translate(63.92578125,33.6953125)"/>
<path d="M0 0 C1.32 0.66 2.64 1.32 4 2 C1.36 4.97 -1.28 7.94 -4 11 C-4.33 10.34 -4.66 9.68 -5 9 C-4.00390625 6.8359375 -4.00390625 6.8359375 -2.5625 4.375 C-2.08941406 3.55773437 -1.61632812 2.74046875 -1.12890625 1.8984375 C-0.75636719 1.27195312 -0.38382812 0.64546875 0 0 Z " fill="#13632F" transform="translate(75,12)"/>
<path d="M0 0 C3.33727786 1.17255709 5.77437487 2.18868404 8 5 C8 5.66 8 6.32 8 7 C5.25851328 6.62952882 3.41406801 6.31412056 1.1875 4.625 C0 3 0 3 0 0 Z " fill="#6DC843" transform="translate(72,6)"/>
<path d="M0 0 C2.97 0.495 2.97 0.495 6 1 C6 1.66 6 2.32 6 3 C3.69 3 1.38 3 -1 3 C-0.67 2.01 -0.34 1.02 0 0 Z " fill="#7AC962" transform="translate(31,79)"/>
</svg>
